<?xml version="1.0" encoding="UTF-8"?>
<svg xmlns="http://www.w3.org/2000/svg" xmlns:xlink="http://www.w3.org/1999/xlink" viewBox="0 0 24 24" width="24px" height="24px">
<g id="surface114911465">
<path style=" stroke:none;fill-rule:nonzero;fill:rgb(20%,20%,20%);fill-opacity:1;" d="M 9.074219 3.359375 C 9.074219 3.359375 6.019531 3.570312 4.019531 5.175781 C 4.011719 5.179688 4 5.183594 3.988281 5.191406 C 3.644531 5.511719 3.382812 6.007812 3.058594 6.71875 C 2.738281 7.433594 2.394531 8.347656 2.085938 9.375 C 1.464844 11.429688 0.960938 13.949219 0.960938 16.320312 C 0.957031 16.40625 0.980469 16.488281 1.019531 16.558594 C 1.722656 17.792969 3.011719 18.535156 4.214844 19.003906 C 5.417969 19.472656 6.53125 19.660156 7.09375 19.679688 C 7.253906 19.6875 7.40625 19.613281 7.5 19.484375 L 8.671875 17.863281 C 9.613281 18.089844 10.71875 18.238281 12 18.238281 C 13.28125 18.238281 14.386719 18.089844 15.328125 17.863281 L 16.5 19.484375 C 16.59375 19.613281 16.746094 19.6875 16.90625 19.679688 C 17.46875 19.660156 18.582031 19.472656 19.785156 19.003906 C 20.988281 18.535156 22.277344 17.792969 22.980469 16.558594 C 23.019531 16.488281 23.042969 16.40625 23.039062 16.320312 C 23.039062 13.949219 22.535156 11.429688 21.914062 9.375 C 21.605469 8.347656 21.261719 7.433594 20.941406 6.71875 C 20.617188 6.007812 20.355469 5.511719 20.011719 5.191406 C 20 5.183594 19.988281 5.179688 19.980469 5.175781 C 17.980469 3.570312 14.925781 3.359375 14.925781 3.359375 C 14.890625 3.355469 14.855469 3.355469 14.820312 3.359375 C 14.652344 3.382812 14.511719 3.492188 14.445312 3.644531 C 14.445312 3.644531 14.28125 4.003906 14.175781 4.515625 C 13.238281 4.363281 12.453125 4.320312 12 4.320312 C 11.546875 4.320312 10.761719 4.363281 9.824219 4.515625 C 9.71875 4.003906 9.554688 3.644531 9.554688 3.644531 C 9.472656 3.457031 9.28125 3.34375 9.074219 3.359375 Z M 8.773438 4.394531 C 8.8125 4.492188 8.835938 4.585938 8.863281 4.695312 C 7.78125 4.945312 6.597656 5.355469 5.488281 6.046875 C 5.316406 6.117188 5.203125 6.285156 5.195312 6.476562 C 5.191406 6.664062 5.296875 6.839844 5.46875 6.921875 C 5.636719 7 5.839844 6.976562 5.984375 6.855469 C 8.207031 5.476562 11.039062 5.28125 12 5.28125 C 12.960938 5.28125 15.792969 5.476562 18.015625 6.855469 C 18.160156 6.976562 18.363281 7 18.53125 6.921875 C 18.703125 6.839844 18.808594 6.664062 18.804688 6.476562 C 18.796875 6.285156 18.683594 6.117188 18.511719 6.046875 C 17.402344 5.355469 16.21875 4.945312 15.136719 4.695312 C 15.164062 4.585938 15.1875 4.492188 15.226562 4.394531 C 15.773438 4.460938 17.902344 4.75 19.351562 5.894531 C 19.445312 5.980469 19.769531 6.460938 20.070312 7.125 C 20.371094 7.789062 20.683594 8.652344 20.984375 9.644531 C 21.570312 11.578125 22.042969 13.96875 22.066406 16.15625 C 21.519531 17.039062 20.496094 17.695312 19.441406 18.105469 C 18.480469 18.476562 17.582031 18.644531 17.113281 18.691406 L 16.304688 17.59375 C 16.71875 17.460938 17.089844 17.316406 17.414062 17.175781 C 18.625 16.640625 19.273438 16.078125 19.273438 16.078125 C 19.472656 15.902344 19.492188 15.597656 19.3125 15.398438 C 19.132812 15.199219 18.828125 15.183594 18.628906 15.359375 C 18.628906 15.359375 18.128906 15.820312 17.023438 16.304688 C 16.621094 16.484375 16.128906 16.660156 15.570312 16.816406 C 15.441406 16.800781 15.3125 16.835938 15.210938 16.921875 C 14.316406 17.136719 13.253906 17.28125 12 17.28125 C 10.738281 17.28125 9.671875 17.125 8.773438 16.90625 C 8.671875 16.835938 8.550781 16.808594 8.429688 16.828125 C 7.871094 16.675781 7.382812 16.484375 6.976562 16.304688 C 5.871094 15.820312 5.371094 15.359375 5.371094 15.359375 C 5.261719 15.257812 5.109375 15.214844 4.964844 15.238281 C 4.78125 15.269531 4.625 15.402344 4.574219 15.582031 C 4.523438 15.761719 4.582031 15.957031 4.726562 16.078125 C 4.726562 16.078125 5.375 16.640625 6.585938 17.175781 C 6.910156 17.316406 7.28125 17.460938 7.695312 17.59375 L 6.886719 18.691406 C 6.417969 18.644531 5.519531 18.476562 4.558594 18.105469 C 3.503906 17.695312 2.480469 17.039062 1.933594 16.15625 C 1.957031 13.96875 2.429688 11.578125 3.015625 9.644531 C 3.316406 8.652344 3.628906 7.789062 3.929688 7.125 C 4.230469 6.460938 4.554688 5.980469 4.648438 5.894531 C 6.097656 4.75 8.226562 4.460938 8.773438 4.394531 Z M 8.878906 10.078125 C 7.65625 10.078125 6.71875 11.191406 6.71875 12.480469 C 6.71875 13.769531 7.65625 14.878906 8.878906 14.878906 C 10.105469 14.878906 11.039062 13.769531 11.039062 12.480469 C 11.039062 11.191406 10.105469 10.078125 8.878906 10.078125 Z M 15.121094 10.078125 C 13.894531 10.078125 12.960938 11.191406 12.960938 12.480469 C 12.960938 13.769531 13.894531 14.878906 15.121094 14.878906 C 16.34375 14.878906 17.28125 13.769531 17.28125 12.480469 C 17.28125 11.191406 16.34375 10.078125 15.121094 10.078125 Z M 8.878906 11.039062 C 9.511719 11.039062 10.078125 11.648438 10.078125 12.480469 C 10.078125 13.3125 9.511719 13.921875 8.878906 13.921875 C 8.25 13.921875 7.679688 13.3125 7.679688 12.480469 C 7.679688 11.648438 8.25 11.039062 8.878906 11.039062 Z M 15.121094 11.039062 C 15.75 11.039062 16.320312 11.648438 16.320312 12.480469 C 16.320312 13.3125 15.75 13.921875 15.121094 13.921875 C 14.488281 13.921875 13.921875 13.3125 13.921875 12.480469 C 13.921875 11.648438 14.488281 11.039062 15.121094 11.039062 Z M 15.121094 11.039062 "/>
</g>
</svg>
